<svg xmlns="http://www.w3.org/2000/svg" width="160" height="160" viewBox="0 0 160 160"><defs><style>.a{fill:#acacac;}.b{fill:none;}</style></defs><path fill="white" class="a" d="M4,112.3A38.85,38.85,0,0,1,16.459,83.916L93.621,10.743a33.166,33.166,0,0,1,44.721-.121,28.291,28.291,0,0,1,.129,41.87l-.075.075L67.186,120.158a21.106,21.106,0,0,1-28.459.081,18,18,0,0,1-.086-26.645l59.926-56.1L102.63,41.3,42.7,97.4a12.859,12.859,0,0,0,.06,19.031,15.075,15.075,0,0,0,20.327-.057l71.436-67.8a23.146,23.146,0,0,0-.121-34.256,27.135,27.135,0,0,0-36.589.113L20.547,87.695a33.433,33.433,0,0,0-.2,49.481c14.538,13.717,38.2,13.8,52.851.191l67.325-61.18,4,3.859L77.2,141.226C64.774,152.545,46.32,155.8,30.351,149.489S4,128.528,4,112.3Z" transform="translate(5.317 2.673)"/><path class="b" d="M0,0H160V160H0Z"/></svg>