<svg xmlns="http://www.w3.org/2000/svg" width="160" height="160" viewBox="0 0 160 160"><defs><style>.a{fill:#fff;}.b{fill:none;}</style></defs><path class="a" d="M127,44.894,84.3,2H5V158H127Zm-5.545,107.534H10.545V7.571H77.091V52.143h44.364ZM82.636,46.571v-39l38.818,39ZM62.3,87.588a69.3,69.3,0,0,0,4.026-23.372A8.3,8.3,0,0,0,60.97,57.04a7.869,7.869,0,0,0-2.662-.457,8.778,8.778,0,0,0-5.85,2.307c-4.83,4.351-4.348,13.433,1.3,24.291.244.468.488,1.014.749,1.6a11.267,11.267,0,0,0,1.874,3.254c-1.935,6.073-4.642,12.664-7.026,18.475L47.9,110.537a52.985,52.985,0,0,0-7.858,3.521c-9.66,5.56-15.494,10.731-12.533,17.873a6.628,6.628,0,0,0,5.085,4.151,7.6,7.6,0,0,0,1.331.111A13.509,13.509,0,0,0,43.3,131.48a63.025,63.025,0,0,0,8.468-16.419c6.205-2.151,14.346-4.3,21.849-6.028a43.445,43.445,0,0,0,16.614,10.842,12.327,12.327,0,0,0,2.457.262,7.765,7.765,0,0,0,6.283-2.836,9.62,9.62,0,0,0,.787-9.884,9.86,9.86,0,0,0-8.69-5.939l-.965-.017a70.2,70.2,0,0,0-14.257,1.961A140.451,140.451,0,0,1,62.307,87.588ZM45.537,116.883c-2.285,5.46-6.106,14.586-10.642,14.586a3.766,3.766,0,0,1-.887-.111A3.622,3.622,0,0,1,31.857,128c.011-1.655,1.131-5.995,11.39-10.53.555-.251,1.165-.552,1.813-.869l.749-.368Zm10.62-53.842a3.209,3.209,0,0,1,2.124-.891,2.4,2.4,0,0,1,.832.145,3.639,3.639,0,0,1,2.052,3.137,47.557,47.557,0,0,1-2.717,15.723l-.061-.123c-4.6-8.842-4.581-15.873-2.229-18Zm-2.446,46.527,6.754-16.2c3.105,3.744,8.1,9.282,9.871,11.238C64.869,105.835,56.717,108.548,53.711,109.568Zm27.993-1.71a44.93,44.93,0,0,1,7.459-.975,5.152,5.152,0,0,1,5.545,3.031,3.765,3.765,0,0,1-.033,3.549,3.183,3.183,0,0,1-2.8,1.281,18.467,18.467,0,0,1-11.2-6.7Z" transform="translate(14)"/><path class="b" d="M0,0H160V160H0Z"/></svg>