<svg xmlns="http://www.w3.org/2000/svg" width="160" height="160" viewBox="0 0 160 160"><defs><style>.a{fill:#fff;}.b{fill:none;}</style></defs><path class="a" d="M127,44.894,84.3,2H5V158H127Zm-5.545,107.534H10.545V7.571H77.091V52.143h44.364ZM82.636,46.571v-39l38.818,39ZM28.169,80a6.548,6.548,0,0,0-6.533,6.563V123.58a6.548,6.548,0,0,0,6.533,6.563H76.1a6.548,6.548,0,0,0,6.533-6.563V86.563A6.548,6.548,0,0,0,76.1,80Zm48.922,6.569v37.005a1,1,0,0,1-.993,1H28.18a.995.995,0,0,1-1-1v-37a1,1,0,0,1,.993-1H76.1A1,1,0,0,1,77.091,86.569Zm33.273,38v-39h-5.545L88.182,96.714v16.714l16.636,11.143ZM93.727,99.695l11.091-7.427v25.606l-11.091-7.427Z" transform="translate(14)"/><path class="b" d="M0,0H160V160H0Z"/></svg>