<svg xmlns="http://www.w3.org/2000/svg" width="160" height="160" viewBox="0 0 160 160"><defs><style>.a{fill:#fff;}.b{fill:none;}</style></defs><path class="a" d="M127,44.894,84.3,2H5V158H127Zm-5.545,107.534H10.545V7.571H32.727V24.286h5.545V7.571H77.091V52.143h44.364ZM82.636,46.571v-39l38.818,39Zm-44.364,0H32.727V29.857h5.545Zm0,44.571H32.727V74.429h5.545Zm0,5.571H32.727v5.571L27.182,119v5.571H43.818V119l-5.545-16.714Zm0,22.286H32.727v-5.571h5.545Zm0-50.143H32.727V52.143h5.545Z" transform="translate(14)"/><path class="b" d="M0,0H160V160H0Z"/></svg>