<svg xmlns="http://www.w3.org/2000/svg" width="160" height="160" viewBox="0 0 160 160"><defs><style>.a{fill:#fff;}.b{fill:none;}</style></defs><path class="a" d="M127,44.894,84.3,2H5V158H127Zm-5.545,107.534H10.545V7.571H77.091V52.143h44.364ZM82.636,46.571v-39l38.818,39ZM57.471,76.061,38.894,91.143H26.722a5.1,5.1,0,0,0-5.085,5.109V108.32a5.1,5.1,0,0,0,5.085,5.109H38.9L57.477,128.51a1.885,1.885,0,0,0,2.978-1.543V77.6a1.885,1.885,0,0,0-2.983-1.543Zm-2.562,43.218L40.857,107.857H27.182V96.714H40.857L54.909,85.3ZM74.784,81.287l3.782-3.694a36.224,36.224,0,0,1,9.616,24.693,37.648,37.648,0,0,1-9.228,24.665l-.177.212-3.965-3.488a33.969,33.969,0,0,0,7.825-21.389A32.023,32.023,0,0,0,74.784,81.287Zm30.034,21A54.346,54.346,0,0,0,91.443,66.64l3.793-3.7a58.475,58.475,0,0,1,15.128,39.345A59.927,59.927,0,0,1,95.629,141.6l-.183.212-3.976-3.493a56.26,56.26,0,0,0,13.348-36.036Z" transform="translate(14)"/><path class="b" d="M0,0H160V160H0Z"/></svg>