<svg xmlns="http://www.w3.org/2000/svg" width="160" height="160" viewBox="0 0 160 160"><defs><style>.a{fill:#fff;}.b{fill:none;}</style></defs><path class="a" d="M139.011,63.386V44.894L96.787,2H18.37V63.386H2.018v83.371H18.37V158H139.011V146.757h16.352V63.386ZM95.141,7.571l38.386,39H95.141Zm-71.288,0h65.8V52.143h43.869V63.386H23.854ZM133.527,152.429H23.854v-5.672H133.527Zm16.55-11.043H7.3V68.757H150.077ZM39.482,120.493a17.908,17.908,0,0,1,0-25.046,17.239,17.239,0,0,1,24.653,0l-3.879,3.941a11.816,11.816,0,0,0-16.9,0,12.278,12.278,0,0,0,0,17.169,12.084,12.084,0,0,0,16.89,0l3.882,3.939a17.228,17.228,0,0,1-24.649,0Zm72.329,3.989L98.794,91.143h5.9l9.7,24.81,9.838-24.81h5.911l-13.227,33.351ZM89.471,116a4.725,4.725,0,0,0-.225-3.811,7.265,7.265,0,0,0-5.188-2.658c-7.068-1.1-10.71-4.368-10.825-9.711a9.327,9.327,0,0,1,2.632-6.686A9.862,9.862,0,0,1,83,90.029a11.54,11.54,0,0,1,10.43,6.14L88.759,99.1A6.146,6.146,0,0,0,83,95.6a4.354,4.354,0,0,0-3.181,1.387,3.746,3.746,0,0,0-1.1,2.652c.022,1.148.077,3.432,6.175,4.379a11.972,11.972,0,0,1,9.059,5.3,10.33,10.33,0,0,1,.691,8.524A11.688,11.688,0,0,1,83.1,125.129a12.678,12.678,0,0,1-11.768-6.909l4.738-2.814a7.33,7.33,0,0,0,7.03,4.151,6.368,6.368,0,0,0,6.361-3.566Zm-73.843,5.789a5.484,5.484,0,1,1,5.484,5.571,5.528,5.528,0,0,1-5.484-5.571Z" transform="translate(1 2)"/><path class="b" d="M0,0H160V160H0Z"/></svg>