<svg xmlns="http://www.w3.org/2000/svg" width="64" height="64" viewBox="0 0 64 64"><defs><style>.a{fill:rgba(97,81,140,0.4);}.b{fill:none;}</style></defs><path fill="white" class="a" d="M2,5V59H62V5ZM59.857,56.545H4.143V43.109l9.431-8.591,2.567,1.392L27.714,24.9,38.429,36.018l7.513-7.666L59.857,42.775ZM47.006,26.055a1.329,1.329,0,0,0-.977-.515,1.3,1.3,0,0,0-1.007.434l-6.594,6.745L28.67,22.579a1.267,1.267,0,0,0-1.836-.032L15.821,33.024l-1.77-.96a1.247,1.247,0,0,0-1.543.287L4.143,39.972V7.455H59.857v32.11ZM38.429,12.364c-2.367,0-4.286,2.2-4.286,4.909s1.919,4.909,4.286,4.909,4.286-2.2,4.286-4.909-1.92-4.906-4.286-4.909Zm0,7.364a2.315,2.315,0,0,1-2.143-2.455,2.163,2.163,0,1,1,4.286,0A2.317,2.317,0,0,1,38.429,19.727Z" transform="translate(0 0)"/><path class="b" d="M0,0H64V64H0Z"/></svg>